<svg width="474" height="421" viewBox="0 0 474 421" fill="none" xmlns="http://www.w3.org/2000/svg">
<path d="M318.973 189.656C285.439 189.656 251.304 188.203 219.373 178.716C188.042 169.442 159.276 151.451 133.635 130.639C116.848 117.091 101.583 106.322 79.7884 107.946C58.4621 109.156 38.0663 117.651 21.6148 132.177C-6.1098 158.075 -1.9431 206.024 9.15475 239.657C25.8216 290.384 76.5431 325.683 119.652 348.589C169.453 375.128 224.181 390.513 279.029 399.402C327.106 407.179 388.886 412.863 430.553 379.359C468.814 348.589 479.311 278.332 469.936 230.896C467.663 216.87 460.668 204.211 450.264 195.297C423.381 174.357 383.277 188.331 353.068 189.058C341.85 189.314 330.432 189.571 318.973 189.656Z" fill="#F2F2F2"/>
<path d="M420.454 56.3645C422.623 56.3645 424.38 54.4894 424.38 52.1764C424.38 49.8634 422.623 47.9883 420.454 47.9883C418.286 47.9883 416.528 49.8634 416.528 52.1764C416.528 54.4894 418.286 56.3645 420.454 56.3645Z" fill="#CFCFCF"/>
<path d="M159.275 21.2788C161.443 21.2788 163.201 19.4037 163.201 17.0907C163.201 14.7777 161.443 12.9026 159.275 12.9026C157.107 12.9026 155.349 14.7777 155.349 17.0907C155.349 19.4037 157.107 21.2788 159.275 21.2788Z" fill="#CFCFCF"/>
<path d="M206.752 420.043C208.92 420.043 210.678 418.168 210.678 415.855C210.678 413.542 208.92 411.667 206.752 411.667C204.583 411.667 202.825 413.542 202.825 415.855C202.825 418.168 204.583 420.043 206.752 420.043Z" fill="#CFCFCF"/>
<path d="M311.561 1.36401V19.7402" stroke="#BABABA" stroke-linecap="round" stroke-linejoin="round"/>
<path d="M302.948 10.5521H320.175" stroke="#BABABA" stroke-linecap="round" stroke-linejoin="round"/>
<path d="M30.8691 78.715V97.0913" stroke="#BABABA" stroke-linecap="round" stroke-linejoin="round"/>
<path d="M22.2144 87.9032H39.4821" stroke="#BABABA" stroke-linecap="round" stroke-linejoin="round"/>
<path d="M43.8506 334.743V353.162" stroke="#BABABA" stroke-linecap="round" stroke-linejoin="round"/>
<path d="M35.1963 343.931H52.4641" stroke="#BABABA" stroke-linecap="round" stroke-linejoin="round"/>
<path d="M399.821 146.322V164.699" stroke="#BABABA" stroke-linecap="round" stroke-linejoin="round"/>
<path d="M391.208 155.511H408.436" stroke="#BABABA" stroke-linecap="round" stroke-linejoin="round"/>
<path d="M279.748 39.1101L78.6527 67.2771C65.6188 69.1027 56.4402 81.8531 58.1517 95.7559L88.803 344.739C90.5146 358.642 102.468 368.432 115.502 366.607L316.597 338.44C329.631 336.614 338.81 323.864 337.098 309.961L306.447 60.9779C304.736 47.075 292.782 37.2845 279.748 39.1101Z" fill="#D2D2D2"/>
<path d="M338.323 75.6382H135.196C122.031 75.6382 111.358 87.0225 111.358 101.066V352.564C111.358 366.607 122.031 377.991 135.196 377.991H338.323C351.489 377.991 362.161 366.607 362.161 352.564V101.066C362.161 87.0225 351.489 75.6382 338.323 75.6382Z" fill="white" stroke="#BABABA" stroke-linecap="round" stroke-linejoin="round"/>
<path d="M141.688 274.614L182.313 203.973C182.713 202.941 183.39 202.058 184.26 201.438C185.131 200.817 186.154 200.485 187.201 200.485C188.248 200.485 189.271 200.817 190.141 201.438C191.011 202.058 191.689 202.941 192.089 203.973L215.126 244.016C215.517 245.051 216.189 245.938 217.057 246.563C217.924 247.187 218.947 247.521 219.993 247.521C221.04 247.521 222.063 247.187 222.93 246.563C223.797 245.938 224.47 245.051 224.861 244.016L264.285 175.639C264.676 174.604 265.349 173.717 266.216 173.092C267.083 172.468 268.106 172.134 269.153 172.134C270.199 172.134 271.222 172.468 272.089 173.092C272.957 173.717 273.629 174.604 274.02 175.639L331.873 276.195L141.688 274.614Z" fill="white" stroke="#BABABA" stroke-linecap="round" stroke-linejoin="round"/>
<path d="M222.697 194.485C229.756 194.485 235.478 188.382 235.478 180.853C235.478 173.324 229.756 167.22 222.697 167.22C215.639 167.22 209.917 173.324 209.917 180.853C209.917 188.382 215.639 194.485 222.697 194.485Z" fill="white" stroke="#BABABA" stroke-linecap="round" stroke-linejoin="round"/>
</svg>
